<svg width="66" height="66" viewBox="0 0 66 66" fill="none" xmlns="http://www.w3.org/2000/svg">
<g filter="url(#filter0_d_5_678)">
<path d="M32.7468 54.3802C46.6946 54.3802 58.0015 42.9635 58.0015 28.8802C58.0015 14.797 46.6946 3.38025 32.7468 3.38025C18.7991 3.38025 7.49219 14.797 7.49219 28.8802C7.49219 42.9635 18.7991 54.3802 32.7468 54.3802Z" fill="white"/>
<path d="M34.0545 26.6283C33.0006 26.6283 32.1432 27.4745 32.1432 28.5148C32.1432 29.555 33.0006 30.4012 34.0545 30.4012C35.1084 30.4012 35.9658 29.555 35.9658 28.5148C35.9658 27.4745 35.1084 26.6283 34.0545 26.6283ZM34.0545 29.4095C33.5546 29.4095 33.1478 29.0081 33.1478 28.5147C33.1478 28.0213 33.5546 27.6199 34.0545 27.6199C34.5544 27.6199 34.9611 28.0213 34.9611 28.5147C34.9611 29.0082 34.5544 29.4095 34.0545 29.4095ZM38.9834 29.5055L38.3344 29.0413C38.3562 28.867 38.3671 28.691 38.3671 28.5151C38.3671 28.3418 38.3565 28.1686 38.3354 27.9971L38.9847 27.5328C39.1506 27.4261 39.3769 27.1747 39.2686 26.6202C39.2166 26.3548 39.0923 26.045 38.9185 25.7479C38.4368 24.9242 37.8531 24.5638 37.387 24.7978L36.6563 25.1201C36.3717 24.9069 36.0639 24.731 35.7361 24.5942L35.654 23.8134C35.6292 23.296 35.0211 22.9761 34.0546 22.9761C33.0908 22.9761 32.4826 23.2951 32.4552 23.8108L32.3728 24.5942C32.045 24.7311 31.7371 24.9071 31.4527 25.1202L30.7235 24.7987C30.5469 24.7103 30.2131 24.6426 29.781 25.0124C29.5741 25.1894 29.3644 25.4507 29.1906 25.7479C28.7089 26.5712 28.6843 27.2502 29.1225 27.5318L29.7736 27.9974C29.7525 28.1691 29.7419 28.3423 29.7419 28.5152C29.7419 28.691 29.7528 28.867 29.7746 29.0412L29.1232 29.5071C28.6844 29.7883 28.7087 30.4677 29.1906 31.2914C29.3644 31.5886 29.5741 31.8498 29.781 32.0269C30.2132 32.3968 30.5471 32.329 30.7235 32.2405L31.4601 31.9158C31.7423 32.1262 32.0473 32.3002 32.3719 32.4358L32.4552 33.2283C32.4823 33.7442 33.0907 34.0632 34.0545 34.0632C35.0211 34.0632 35.6291 33.7434 35.6539 33.2258L35.737 32.4358C36.0616 32.3002 36.3666 32.1262 36.6488 31.9158L37.387 32.2414C37.8531 32.4756 38.4367 32.115 38.9184 31.2915C39.4017 30.4652 39.4252 29.7855 38.9834 29.5055ZM37.2982 27.8716C37.3409 28.0817 37.3624 28.2982 37.3624 28.5151C37.3624 28.7339 37.3403 28.9528 37.2968 29.1658C37.2579 29.3562 37.3352 29.5514 37.4945 29.6653L38.2827 30.2289C38.2597 30.345 38.1927 30.5487 38.0483 30.7956C37.9038 31.0424 37.7586 31.2016 37.6682 31.2793L36.7763 30.8858C36.5968 30.8066 36.3869 30.8381 36.2393 30.9664C35.9067 31.2555 35.5265 31.4724 35.1092 31.6108C34.9227 31.6727 34.7899 31.8364 34.7696 32.0296L34.6687 32.9886C34.5554 33.0269 34.3432 33.0715 34.0544 33.0715C33.7655 33.0715 33.5533 33.0269 33.44 32.9885L33.3392 32.0297C33.3189 31.8365 33.1862 31.6727 32.9996 31.6108C32.5824 31.4724 32.2022 31.2555 31.8694 30.9664C31.7219 30.8381 31.5122 30.8066 31.3325 30.8858L30.4405 31.2791C30.3501 31.2014 30.2049 31.0423 30.0606 30.7955C29.9161 30.5486 29.8491 30.3448 29.8261 30.2288L30.6143 29.6651C30.7736 29.5512 30.8508 29.356 30.812 29.1657C30.7685 28.9527 30.7464 28.7338 30.7464 28.5151C30.7464 28.2989 30.7681 28.0823 30.8107 27.8714C30.8491 27.6813 30.7718 27.4866 30.6128 27.3729L29.8261 26.8105C29.849 26.6944 29.9161 26.4906 30.0606 26.2436C30.2049 25.9969 30.3501 25.8377 30.4404 25.76L31.3257 26.1505C31.5058 26.2298 31.716 26.1979 31.8635 26.0691C32.1977 25.7772 32.5802 25.5586 33.0004 25.4193C33.187 25.3574 33.3197 25.1937 33.3401 25.0004L33.4399 24.0507C33.5532 24.0123 33.7655 23.9677 34.0544 23.9677C34.3431 23.9677 34.5553 24.0123 34.6687 24.0507L34.7685 25.0004C34.7889 25.1937 34.9217 25.3574 35.1084 25.4193C35.5284 25.5584 35.9109 25.7771 36.2453 26.069C36.3928 26.1979 36.603 26.2297 36.783 26.1503L37.6682 25.7599C37.7585 25.8376 37.9038 25.9968 38.0482 26.2437C38.1926 26.4904 38.2596 26.6941 38.2826 26.8102L37.496 27.3728C37.337 27.4866 37.2597 27.6815 37.2982 27.8716ZM39.9743 20.8129H28.1347C26.2247 20.8129 24.6839 22.3419 24.6839 24.2273V33.8909L23.0653 35.3123V24.108C23.0652 21.4297 25.3004 19.2704 28.0139 19.2704H37.3914C37.9186 19.2704 38.4222 19.4249 38.8476 19.7357C39.0706 19.8986 39.3852 19.8473 39.5503 19.6272C39.7154 19.4071 39.6684 19.104 39.4454 18.9411C38.8456 18.503 38.1353 18.2787 37.3914 18.2787H28.0139C24.7464 18.2787 22.0605 20.8829 22.0605 24.108V36.4361C22.0605 36.6325 22.1918 36.8104 22.3739 36.8897C22.556 36.9689 22.7818 36.9347 22.9288 36.8023L24.6839 35.2334V38.9852C24.6839 39.1816 24.7948 39.3595 24.9769 39.4388C25.042 39.4672 25.1077 39.481 25.1763 39.481C25.2992 39.481 25.419 39.4364 25.5134 39.3514L28.4324 36.7213C28.5232 36.6394 28.6003 36.568 28.668 36.5057C28.8077 36.377 28.9395 36.2555 28.9832 36.2385C29.0242 36.2226 29.1974 36.2291 29.3807 36.2315C29.4799 36.2328 29.595 36.2385 29.7305 36.2385H39.9743C41.8844 36.2385 43.438 34.6963 43.438 32.811V24.2273C43.4379 22.3419 41.8843 20.8129 39.9743 20.8129ZM42.4332 32.811C42.4332 34.1495 41.3303 35.2468 39.9742 35.2468H29.7304C29.6002 35.2468 29.4895 35.2412 29.3941 35.24C28.6536 35.2302 28.5347 35.274 27.9822 35.7827C27.9168 35.8429 27.8484 35.9109 27.7608 35.9899L25.6886 37.8614V34.1102C25.6886 34.1097 25.6886 34.1093 25.6886 34.1089V24.2273C25.6885 22.8887 26.7786 21.8046 28.1347 21.8046H39.9743C41.3304 21.8046 42.4332 22.8887 42.4332 24.2273L42.4332 32.811Z" fill="#8D5DA7"/>
</g>
<defs>
<filter id="filter0_d_5_678" x="0.492188" y="0.380249" width="64.5093" height="65" filterUnits="userSpaceOnUse" color-interpolation-filters="sRGB">
<feFlood flood-opacity="0" result="BackgroundImageFix"/>
<feColorMatrix in="SourceAlpha" type="matrix" values="0 0 0 0 0 0 0 0 0 0 0 0 0 0 0 0 0 0 127 0" result="hardAlpha"/>
<feOffset dy="4"/>
<feGaussianBlur stdDeviation="3.5"/>
<feComposite in2="hardAlpha" operator="out"/>
<feColorMatrix type="matrix" values="0 0 0 0 0 0 0 0 0 0 0 0 0 0 0 0 0 0 0.25 0"/>
<feBlend mode="normal" in2="BackgroundImageFix" result="effect1_dropShadow_5_678"/>
<feBlend mode="normal" in="SourceGraphic" in2="effect1_dropShadow_5_678" result="shape"/>
</filter>
</defs>
</svg>
