<svg width="66" height="66" viewBox="0 0 66 66" fill="none" xmlns="http://www.w3.org/2000/svg">
<g filter="url(#filter0_d_5_645)">
<path d="M32.9317 54.0773C46.7779 54.0773 58.0025 42.6605 58.0025 28.5773C58.0025 14.494 46.7779 3.07727 32.9317 3.07727C19.0854 3.07727 7.86084 14.494 7.86084 28.5773C7.86084 42.6605 19.0854 54.0773 32.9317 54.0773Z" fill="white"/>
</g>
<path d="M23.2865 21.9274C23.3745 21.9274 23.4611 21.8917 23.5232 21.8291C23.5857 21.7671 23.6214 21.6805 23.6214 21.5925C23.6214 21.5045 23.5857 21.4179 23.5232 21.3559C23.4611 21.2933 23.3745 21.2576 23.2865 21.2576C23.1986 21.2576 23.112 21.2933 23.0499 21.3559C22.9874 21.4179 22.9517 21.5045 22.9517 21.5925C22.9517 21.6805 22.9874 21.7671 23.0499 21.8291C23.112 21.8917 23.1981 21.9274 23.2865 21.9274Z" fill="#8D5DA7"/>
<path d="M24.3583 21.9274C24.4463 21.9274 24.5329 21.8917 24.595 21.8291C24.6575 21.7671 24.6932 21.6805 24.6932 21.5925C24.6932 21.5045 24.6575 21.4179 24.595 21.3559C24.5329 21.2933 24.4463 21.2576 24.3583 21.2576C24.2703 21.2576 24.1837 21.2933 24.1217 21.3559C24.0592 21.4179 24.0234 21.5045 24.0234 21.5925C24.0234 21.6805 24.0592 21.7671 24.1217 21.8291C24.1837 21.8917 24.2703 21.9274 24.3583 21.9274Z" fill="#8D5DA7"/>
<path d="M25.4296 21.9274C25.5176 21.9274 25.6042 21.8917 25.6662 21.8291C25.7287 21.7671 25.7645 21.6805 25.7645 21.5925C25.7645 21.5045 25.7287 21.4179 25.6662 21.3559C25.6042 21.2933 25.5176 21.2576 25.4296 21.2576C25.3416 21.2576 25.255 21.2933 25.193 21.3559C25.1304 21.4179 25.0947 21.5045 25.0947 21.5925C25.0947 21.6805 25.1304 21.7671 25.193 21.8291C25.255 21.8917 25.3416 21.9274 25.4296 21.9274Z" fill="#8D5DA7"/>
<path d="M26.8588 21.9274H40.4322C40.6172 21.9274 40.7671 21.7774 40.7671 21.5925C40.7671 21.4076 40.6172 21.2576 40.4322 21.2576H26.8588C26.6739 21.2576 26.5239 21.4076 26.5239 21.5925C26.5239 21.7774 26.6739 21.9274 26.8588 21.9274Z" fill="#8D5DA7"/>
<path d="M41.8607 21.9274H42.5751C42.7601 21.9274 42.91 21.7774 42.91 21.5925C42.91 21.4076 42.7601 21.2576 42.5751 21.2576H41.8607C41.6758 21.2576 41.5259 21.4076 41.5259 21.5925C41.5259 21.7774 41.6758 21.9274 41.8607 21.9274Z" fill="#8D5DA7"/>
<path d="M23.644 25.1442H26.1443C26.3293 25.1442 26.4792 24.9942 26.4792 24.8093C26.4792 24.6244 26.3293 24.4744 26.1443 24.4744H23.644C23.459 24.4744 23.3091 24.6244 23.3091 24.8093C23.3091 24.9942 23.459 25.1442 23.644 25.1442Z" fill="#8D5DA7"/>
<path d="M26.1443 26.2615H23.644C23.459 26.2615 23.3091 26.4115 23.3091 26.5964C23.3091 26.7813 23.459 26.9313 23.644 26.9313H26.1443C26.3293 26.9313 26.4792 26.7813 26.4792 26.5964C26.4792 26.4115 26.3293 26.2615 26.1443 26.2615Z" fill="#8D5DA7"/>
<path d="M26.1443 28.0488H23.644C23.459 28.0488 23.3091 28.1987 23.3091 28.3836C23.3091 28.5686 23.459 28.7185 23.644 28.7185H26.1443C26.3293 28.7185 26.4792 28.5686 26.4792 28.3836C26.4792 28.1987 26.3293 28.0488 26.1443 28.0488Z" fill="#8D5DA7"/>
<path d="M26.1443 29.8359H23.644C23.459 29.8359 23.3091 29.9858 23.3091 30.1707C23.3091 30.3557 23.459 30.5056 23.644 30.5056H26.1443C26.3293 30.5056 26.4792 30.3557 26.4792 30.1707C26.4792 29.9858 26.3293 29.8359 26.1443 29.8359Z" fill="#8D5DA7"/>
<path d="M30.4306 33.4102H29.7162C29.5313 33.4102 29.3813 33.5602 29.3813 33.7451C29.3813 33.93 29.5313 34.08 29.7162 34.08H30.4306C30.6155 34.08 30.7655 33.93 30.7655 33.7451C30.7655 33.5602 30.6155 33.4102 30.4306 33.4102Z" fill="#8D5DA7"/>
<path d="M30.4306 35.1972H29.7162C29.5313 35.1972 29.3813 35.3471 29.3813 35.5321C29.3813 35.717 29.5313 35.8669 29.7162 35.8669H30.4306C30.6155 35.8669 30.7655 35.717 30.7655 35.5321C30.7655 35.3471 30.6155 35.1972 30.4306 35.1972Z" fill="#8D5DA7"/>
<path d="M31.8573 34.08H32.5717C32.7567 34.08 32.9066 33.93 32.9066 33.7451C32.9066 33.5602 32.7567 33.4102 32.5717 33.4102H31.8573C31.6724 33.4102 31.5225 33.5602 31.5225 33.7451C31.5225 33.93 31.6724 34.08 31.8573 34.08Z" fill="#8D5DA7"/>
<path d="M33.2861 35.1972H31.8573C31.6724 35.1972 31.5225 35.3471 31.5225 35.5321C31.5225 35.717 31.6724 35.8669 31.8573 35.8669H33.2861C33.4711 35.8669 33.621 35.717 33.621 35.5321C33.621 35.3471 33.4711 35.1972 33.2861 35.1972Z" fill="#8D5DA7"/>
<path d="M39.3603 33.4102H34.0024C33.8174 33.4102 33.6675 33.5602 33.6675 33.7451C33.6675 33.93 33.8174 34.08 34.0024 34.08H39.3603C39.5452 34.08 39.6951 33.93 39.6951 33.7451C39.6951 33.5602 39.5452 33.4102 39.3603 33.4102Z" fill="#8D5DA7"/>
<path d="M36.8599 35.1972H34.7167C34.5318 35.1972 34.3818 35.3471 34.3818 35.5321C34.3818 35.717 34.5318 35.8669 34.7167 35.8669H36.8599C37.0448 35.8669 37.1947 35.717 37.1947 35.5321C37.1947 35.3471 37.0448 35.1972 36.8599 35.1972Z" fill="#8D5DA7"/>
<path d="M26.1443 31.6229H23.644C23.459 31.6229 23.3091 31.7728 23.3091 31.9577C23.3091 32.1427 23.459 32.2926 23.644 32.2926H26.1443C26.3293 32.2926 26.4792 32.1427 26.4792 31.9577C26.4792 31.7728 26.3293 31.6229 26.1443 31.6229Z" fill="#8D5DA7"/>
<path d="M26.1443 33.4102H23.644C23.459 33.4102 23.3091 33.5602 23.3091 33.7451C23.3091 33.93 23.459 34.08 23.644 34.08H26.1443C26.3293 34.08 26.4792 33.93 26.4792 33.7451C26.4792 33.5602 26.3293 33.4102 26.1443 33.4102Z" fill="#8D5DA7"/>
<path d="M26.1443 35.1972H23.644C23.459 35.1972 23.3091 35.3471 23.3091 35.5321C23.3091 35.717 23.459 35.8669 23.644 35.8669H26.1443C26.3293 35.8669 26.4792 35.717 26.4792 35.5321C26.4792 35.3471 26.3293 35.1972 26.1443 35.1972Z" fill="#8D5DA7"/>
<path d="M42.5751 19.8275H23.2866C22.3141 19.8275 21.5229 20.6192 21.5229 21.5923V35.8893C21.5229 36.8624 22.3141 37.6541 23.2866 37.6541H42.5751C43.5476 37.6541 44.3388 36.8624 44.3388 35.8893V21.5923C44.3388 20.6192 43.5476 19.8275 42.5751 19.8275ZM28.265 23.3571H43.6691V31.6225H28.265V23.3571ZM23.2866 20.4977H42.5751C43.1783 20.4977 43.6691 20.9887 43.6691 21.5923V22.6869H22.1927V21.5923C22.1927 20.9887 22.6834 20.4977 23.2866 20.4977ZM22.1927 35.8893V23.3571H27.5953V36.9839H23.2866C22.6834 36.9839 22.1927 36.4928 22.1927 35.8893ZM42.5751 36.9839H28.265V32.2927H43.6691V35.8893C43.6691 36.4928 43.1783 36.9839 42.5751 36.9839Z" fill="#8D5DA7"/>
<path d="M38.255 29.2692H31.4451C31.069 29.2692 30.7642 29.4789 30.7642 29.7377C30.7642 29.9965 31.069 30.2063 31.4451 30.2063H38.255C38.6311 30.2063 38.936 29.9965 38.936 29.7377C38.936 29.4789 38.6311 29.2692 38.255 29.2692Z" fill="#8D5DA7"/>
<path d="M37.2743 24.3859C37.019 24.1019 36.605 24.1019 36.3497 24.3859L34.1968 26.7807L33.3515 25.8404C33.0961 25.5564 32.6822 25.5564 32.4268 25.8404C32.1715 26.1244 32.1715 26.5849 32.4268 26.8689L33.7345 28.3235C33.9898 28.6075 34.4038 28.6075 34.6591 28.3235L37.2743 25.4144C37.5296 25.1304 37.5296 24.6699 37.2743 24.3859Z" fill="#8D5DA7"/>
<defs>
<filter id="filter0_d_5_645" x="0.86084" y="0.0772705" width="64.1416" height="65" filterUnits="userSpaceOnUse" color-interpolation-filters="sRGB">
<feFlood flood-opacity="0" result="BackgroundImageFix"/>
<feColorMatrix in="SourceAlpha" type="matrix" values="0 0 0 0 0 0 0 0 0 0 0 0 0 0 0 0 0 0 127 0" result="hardAlpha"/>
<feOffset dy="4"/>
<feGaussianBlur stdDeviation="3.5"/>
<feComposite in2="hardAlpha" operator="out"/>
<feColorMatrix type="matrix" values="0 0 0 0 0 0 0 0 0 0 0 0 0 0 0 0 0 0 0.25 0"/>
<feBlend mode="normal" in2="BackgroundImageFix" result="effect1_dropShadow_5_645"/>
<feBlend mode="normal" in="SourceGraphic" in2="effect1_dropShadow_5_645" result="shape"/>
</filter>
</defs>
</svg>
