<svg width="66" height="66" viewBox="0 0 66 66" fill="none" xmlns="http://www.w3.org/2000/svg">
<g filter="url(#filter0_d_5_683)">
<path d="M32.9521 54.9862C46.7873 54.9862 58.0029 43.5695 58.0029 29.4862C58.0029 15.4029 46.7873 3.98621 32.9521 3.98621C19.117 3.98621 7.90137 15.4029 7.90137 29.4862C7.90137 43.5695 19.117 54.9862 32.9521 54.9862Z" fill="white"/>
</g>
<g clip-path="url(#clip0_5_683)">
<path d="M36.7917 31.9334C40.602 31.9334 43.7021 28.8314 43.7021 25.0188C43.7021 21.2062 40.602 18.1042 36.7917 18.1042C32.9814 18.1042 29.8813 21.2062 29.8813 25.0188C29.8813 28.8314 32.9814 31.9334 36.7917 31.9334ZM36.7917 18.8725C40.1785 18.8725 42.9342 21.6299 42.9342 25.0188C42.9342 28.4077 40.1785 31.165 36.7917 31.165C33.4049 31.165 30.6492 28.4077 30.6492 25.0188C30.6492 21.6299 33.4049 18.8725 36.7917 18.8725Z" fill="#8D5DA7"/>
<path d="M36.7905 26.939C36.3671 26.939 36.0227 26.5945 36.0227 26.1707C36.0227 25.9587 35.8511 25.7866 35.6388 25.7866C35.4265 25.7866 35.2549 25.9587 35.2549 26.1707C35.2549 26.8845 35.7459 27.481 36.4066 27.6527V27.7073C36.4066 27.9193 36.5782 28.0914 36.7905 28.0914C37.0028 28.0914 37.1744 27.9193 37.1744 27.7073V27.6527C37.8351 27.481 38.3261 26.8845 38.3261 26.1707C38.3261 25.3233 37.6374 24.6343 36.7905 24.6343C36.3671 24.6343 36.0227 24.2897 36.0227 23.866C36.0227 23.4423 36.367 23.0977 36.7905 23.0977C37.2139 23.0977 37.5583 23.4423 37.5583 23.866C37.5583 24.078 37.7299 24.2501 37.9422 24.2501C38.1545 24.2501 38.3261 24.078 38.3261 23.866C38.3261 23.1523 37.8351 22.5558 37.1744 22.384V22.3295C37.1744 22.1175 37.0028 21.9454 36.7905 21.9454C36.5782 21.9454 36.4066 22.1175 36.4066 22.3295V22.384C35.7459 22.5557 35.2549 23.1523 35.2549 23.866C35.2549 24.7134 35.9436 25.4025 36.7905 25.4025C37.2139 25.4025 37.5583 25.747 37.5583 26.1707C37.5583 26.5945 37.214 26.939 36.7905 26.939Z" fill="#8D5DA7"/>
<path d="M36.7907 30.3968C39.7545 30.3968 42.1654 27.9844 42.1654 25.0186C42.1654 22.0529 39.7545 19.6405 36.7907 19.6405C33.8269 19.6405 31.416 22.053 31.416 25.0187C31.416 27.9844 33.8269 30.3968 36.7907 30.3968ZM36.7907 20.4088C39.331 20.4088 41.3976 22.4767 41.3976 25.0187C41.3976 27.5606 39.331 29.6286 36.7907 29.6286C34.2504 29.6286 32.1838 27.5606 32.1838 25.0187C32.1838 22.4767 34.2504 20.4088 36.7907 20.4088Z" fill="#8D5DA7"/>
<path d="M23.3539 38.6564C23.3539 38.3388 23.0955 38.0803 22.778 38.0803C22.4605 38.0803 22.2021 38.3388 22.2021 38.6564C22.2021 38.9741 22.4605 39.2326 22.778 39.2326C23.0955 39.2326 23.3539 38.9741 23.3539 38.6564Z" fill="#8D5DA7"/>
<path d="M44.2628 34.2382C43.8393 33.5041 42.8968 33.2529 42.1889 33.6631L37.7705 35.815C37.0837 36.1588 36.3904 36.1588 34.8708 36.1588C33.3855 36.1588 31.1177 35.7835 31.0947 35.78C30.8859 35.7451 30.6878 35.8865 30.6532 36.0954C30.6183 36.3048 30.7596 36.503 30.9688 36.5375C31.064 36.5537 33.3214 36.9271 34.8708 36.9271C36.4648 36.9271 37.2649 36.9271 38.1099 36.5041L42.549 34.3412C42.7264 34.2386 42.9329 34.2113 43.1318 34.2643C43.3296 34.3177 43.4954 34.4449 43.5975 34.6223C43.7004 34.8002 43.7277 35.0072 43.6747 35.2054C43.6217 35.4037 43.4946 35.5692 43.3061 35.6783L38.1153 38.9107C38.1045 38.918 36.9969 39.6159 34.487 39.6159C32.3106 39.6159 28.9484 37.7622 28.9 37.7356C28.865 37.7188 28.0327 37.3112 26.4249 37.3112C26.2126 37.3112 26.041 37.4833 26.041 37.6953C26.041 37.9073 26.2126 38.0794 26.4249 38.0794C27.8212 38.0794 28.5406 38.4155 28.5422 38.4155V38.4151C28.6873 38.4958 32.1117 40.3842 34.487 40.3842C37.2588 40.3842 38.4881 39.5852 38.5288 39.5579L43.7008 36.337C44.0559 36.1319 44.31 35.8004 44.416 35.4044C44.5227 35.0075 44.4678 34.5935 44.2628 34.2382Z" fill="#8D5DA7"/>
<path d="M26.4254 32.7016H29.4967C29.9447 32.7016 30.706 33.2732 31.3778 33.7771C32.2201 34.4094 33.016 35.0064 33.7197 35.0064H36.0231C36.6063 35.0064 36.8957 35.271 36.9034 35.2779C36.9783 35.3528 37.0766 35.3905 37.1748 35.3905C37.2731 35.3905 37.3714 35.3528 37.4463 35.2779C37.5963 35.1277 37.5963 34.885 37.4463 34.7348C37.3956 34.6841 36.9241 34.2381 36.0231 34.2381H33.7197C33.2716 34.2381 32.5103 33.6665 31.8385 33.1626C30.9962 32.5303 30.2004 31.9333 29.4967 31.9333H26.4254C26.2131 31.9333 26.0415 32.1054 26.0415 32.3175C26.0415 32.5295 26.2131 32.7016 26.4254 32.7016Z" fill="#8D5DA7"/>
<path d="M24.1219 30.3967H21.8185C21.6062 30.3967 21.4346 30.5688 21.4346 30.7809C21.4346 30.9929 21.6062 31.165 21.8185 31.165H24.1219C24.3338 31.165 24.5058 31.3375 24.5058 31.5491V40.0006C24.5058 40.2122 24.3338 40.3847 24.1219 40.3847H21.8185C21.6062 40.3847 21.4346 40.5568 21.4346 40.7688C21.4346 40.9809 21.6062 41.153 21.8185 41.153H24.1219C24.7569 41.153 25.2736 40.6359 25.2736 40.0005V31.5492C25.2736 30.9138 24.7569 30.3967 24.1219 30.3967Z" fill="#8D5DA7"/>
</g>
<defs>
<filter id="filter0_d_5_683" x="0.901367" y="0.986206" width="64.1016" height="65" filterUnits="userSpaceOnUse" color-interpolation-filters="sRGB">
<feFlood flood-opacity="0" result="BackgroundImageFix"/>
<feColorMatrix in="SourceAlpha" type="matrix" values="0 0 0 0 0 0 0 0 0 0 0 0 0 0 0 0 0 0 127 0" result="hardAlpha"/>
<feOffset dy="4"/>
<feGaussianBlur stdDeviation="3.5"/>
<feComposite in2="hardAlpha" operator="out"/>
<feColorMatrix type="matrix" values="0 0 0 0 0 0 0 0 0 0 0 0 0 0 0 0 0 0 0.25 0"/>
<feBlend mode="normal" in2="BackgroundImageFix" result="effect1_dropShadow_5_683"/>
<feBlend mode="normal" in="SourceGraphic" in2="effect1_dropShadow_5_683" result="shape"/>
</filter>
<clipPath id="clip0_5_683">
<rect width="23.0352" height="23.05" fill="white" transform="translate(21.4346 18.1038)"/>
</clipPath>
</defs>
</svg>
