<svg width="35" height="20" viewBox="0 0 35 20" fill="none" xmlns="http://www.w3.org/2000/svg">
<path d="M30.4082 0.780762H4.60077C2.37373 0.780762 0.568359 2.46618 0.568359 4.54525V15.8387C0.568359 17.9178 2.37373 19.6032 4.60077 19.6032H30.4082C32.6352 19.6032 34.4406 17.9178 34.4406 15.8387V4.54525C34.4406 2.46618 32.6352 0.780762 30.4082 0.780762Z" fill="#F5F5F5"/>
<path d="M28.9469 8.4149H24.8612L23.6203 4.70979C23.5884 4.62353 23.5309 4.54909 23.4555 4.49652C23.38 4.44395 23.2902 4.41577 23.1983 4.41577C23.1063 4.41577 23.0166 4.44395 22.9411 4.49652C22.8656 4.54909 22.8081 4.62353 22.7763 4.70979L21.5346 8.4149H17.4191C17.3013 8.41526 17.1885 8.4622 17.1052 8.54548C17.0219 8.62875 16.975 8.74159 16.9746 8.85935C16.9744 8.8845 16.9772 8.90959 16.9828 8.93411C16.9887 8.99695 17.0084 9.05771 17.0406 9.112C17.0728 9.1663 17.1167 9.21277 17.169 9.24808L20.5268 11.6144L19.2404 15.3603C19.2099 15.4491 19.2083 15.5453 19.2358 15.6352C19.2632 15.725 19.3183 15.8038 19.3933 15.8605C19.4627 15.9227 19.5505 15.9606 19.6434 15.9685C19.7434 15.9615 19.8397 15.9269 19.9213 15.8686L23.1956 13.5329L26.4725 15.8686C26.5536 15.9281 26.6501 15.9627 26.7505 15.9685C26.8443 15.9629 26.9331 15.9244 27.0012 15.8598C27.0768 15.8037 27.1325 15.7249 27.16 15.6349C27.1875 15.5448 27.1855 15.4484 27.1542 15.3596L25.8629 11.613L29.1929 9.22497L29.2738 9.15701C29.3564 9.0789 29.4077 8.97328 29.4179 8.86003C29.4114 8.7396 29.3589 8.62625 29.2713 8.5434C29.1836 8.46056 29.0675 8.41456 28.9469 8.4149Z" fill="#FFD12F"/>
<path d="M9.55184 15.3902C8.75851 15.3902 7.87184 15.2782 6.89184 15.0542L6.41584 14.9422L6.56984 13.9202C7.66184 14.1162 8.57651 14.2142 9.31384 14.2142C9.94851 14.2142 10.4338 14.0462 10.7698 13.7102C11.1152 13.3742 11.2878 12.8982 11.2878 12.2822C11.2878 11.6942 11.1432 11.2649 10.8538 10.9942C10.5645 10.7236 10.1352 10.5882 9.56584 10.5882C9.25784 10.5882 8.93118 10.6256 8.58584 10.7002C8.24984 10.7656 7.96984 10.8449 7.74584 10.9382L7.46584 11.0502L6.59784 10.8682L6.84984 6.01024H12.3238V7.20024H7.94184L7.68984 9.90224C8.38984 9.56624 9.06184 9.39824 9.70584 9.39824C11.6752 9.39824 12.6598 10.3176 12.6598 12.1562C12.6598 13.1922 12.3892 13.9902 11.8478 14.5502C11.3065 15.1102 10.5412 15.3902 9.55184 15.3902Z" fill="#45A787"/>
</svg>
